<?xml version="1.0" encoding="iso-8859-1"?>
<!-- Uploaded to: SVG Repo, www.svgrepo.com, Generator: SVG Repo Mixer Tools -->
<!DOCTYPE svg PUBLIC "-//W3C//DTD SVG 1.1//EN" "http://www.w3.org/Graphics/SVG/1.1/DTD/svg11.dtd">
<svg fill="#000000" version="1.1" id="Capa_1" xmlns="http://www.w3.org/2000/svg" xmlns:xlink="http://www.w3.org/1999/xlink" 
	 width="800px" height="800px" viewBox="0 0 512 512"
	 xml:space="preserve">
<g>
	<g>
		<path d="M445.866,543.562V26.144C445.866,11.733,434.142,0,419.741,0H149.973c-14.42,0-26.144,11.733-26.144,26.144v517.417
			c0,14.41,11.733,26.134,26.144,26.134h269.768C434.142,569.695,445.866,557.972,445.866,543.562z M138.164,543.562V26.144
			c0-6.502,5.288-11.8,11.8-11.8h269.768c6.502,0,11.78,5.298,11.78,11.8v517.417c0,6.502-5.288,11.79-11.78,11.79H149.973
			C143.452,555.352,138.164,550.063,138.164,543.562z"/>
		<path d="M424.37,481.386V56.706c0-1.979-1.606-3.586-3.586-3.586H148.902c-1.979,0-3.586,1.606-3.586,3.586v424.68
			c0,1.979,1.606,3.586,3.586,3.586h271.881C422.763,484.972,424.37,483.365,424.37,481.386z M407.635,477.8H162.051
			c-5.278,0-9.562-4.284-9.562-9.562V69.854c0-5.278,4.284-9.562,9.562-9.562h245.584c5.278,0,9.562,4.284,9.562,9.562v398.383
			C417.198,473.516,412.914,477.8,407.635,477.8z"/>
		<path d="M269.237,36.452c4.581,1.387,10.442,2.085,17.442,2.085s12.871-0.698,17.441-2.085c3.061-0.927,4.074-2.964,3.997-4.561
			c-0.057-1.673-1.329-3.72-4.666-4.428c-3.682-0.774-9.582-1.73-16.716-1.874l-1.415-0.01c-6.665,0-12.125,0.938-15.5,1.721
			c-3.309,0.756-4.542,2.831-4.59,4.533C265.173,33.459,266.196,35.534,269.237,36.452z M286.65,30.38
			c2.812,0.058,5.422,0.239,7.756,0.498c4.273,0.468,4.312,2.123,0.038,2.543c-2.372,0.229-4.964,0.344-7.765,0.344
			c-2.879,0-5.537-0.124-7.966-0.363c-4.38-0.44-4.647-2.199-0.66-2.639c2.17-0.239,4.609-0.392,7.258-0.392L286.65,30.38z"/>
		<path d="M402.873,40.363c4.581,0,8.31-3.729,8.31-8.31c0-4.571-3.738-8.3-8.31-8.3c-4.58,0-8.31,3.729-8.31,8.3
			C394.563,36.644,398.302,40.363,402.873,40.363z M402.873,28.535c1.941,0,3.528,1.578,3.528,3.519
			c0,1.951-1.587,3.528-3.528,3.528s-3.528-1.587-3.528-3.528C399.344,30.112,400.931,28.535,402.873,28.535z"/>
		<path d="M185.049,500.349l-8.052,5.46c-0.239,0.162-3.002,2.046-3.002,2.046c-1.1,0.746-1.377,2.229-0.631,3.318
			c0.469,0.679,1.214,1.052,1.979,1.052c0.134,0,0.258-0.038,0.382-0.086c0.201-0.076,0.363,2.285,0.363,5.298v5.441
			c0,1.319,1.081,2.391,2.391,2.391h15.463c1.31,0,2.391-1.071,2.391-2.391c0,0,0-2.448,0-5.47c0-3.022,0.669-5.184,1.482-5.374
			c0.478-0.115,0.899-0.373,1.214-0.823c0.765-1.08,0.507-2.572-0.583-3.337l-10.672-7.497
			C186.971,499.794,185.89,499.794,185.049,500.349z M186.206,520.496c-2.955,0-5.345-2.581-5.345-5.766s1.233-6.599,2.754-7.631
			c1.521-1.033,3.911-1.052,5.345-0.048c1.425,1.004,2.582,4.418,2.582,7.631S189.151,520.496,186.206,520.496z"/>
		<path d="M257.437,505.33h-17.968c-1.329,0-2.391,1.071-2.391,2.391c0,1.32,1.062,2.391,2.391,2.391h17.968
			c1.33,0,2.391-1.07,2.391-2.391C259.827,506.401,258.766,505.33,257.437,505.33z"/>
		<path d="M257.437,512.856h-17.968c-1.329,0-2.391,1.07-2.391,2.391c0,1.319,1.062,2.391,2.391,2.391h17.968
			c1.33,0,2.391-1.071,2.391-2.391C259.827,513.918,258.766,512.856,257.437,512.856z"/>
		<path d="M257.437,520.496h-17.968c-1.329,0-2.391,1.071-2.391,2.391c0,1.32,1.062,2.391,2.391,2.391h17.968
			c1.33,0,2.391-1.07,2.391-2.391C259.827,521.567,258.766,520.496,257.437,520.496z"/>
		<path d="M311.933,510.351c-1.262,0.01-2.275-0.784-2.275-1.769c0-0.985-2.314-0.45-5.164,1.195c-2.85,1.645-2.85,4.312,0,5.957
			s5.164,2.181,5.164,1.186c0-0.984,1.014-1.798,2.257-1.798l2.257-0.009c2.036-0.02,3.365,0.525,4.293,1.615
			c1.884,2.229,1.684,6.465,1.435,7.918c-0.114,0.65,0.048,1.281,0.401,1.779c0.593,0.841,2.448,1.08,3.309,0.535
			c0.536-0.345,0.88-0.87,0.995-1.502c0.134-0.755,1.176-7.478-2.486-11.81c-1.291-1.521-3.701-3.317-7.898-3.317
			C314.19,510.332,313.062,510.341,311.933,510.351z"/>
		<path d="M366.698,510.829c0,5.135,4.169,9.304,9.305,9.304c0.325,0,0.631-0.057,0.928-0.134c0.497-0.134,1.559,1.177,2.371,2.917
			l1.463,3.146c0.393,0.87,1.271,1.387,2.171,1.387c0.335,0,0.669-0.066,1.014-0.22c1.195-0.555,1.721-1.979,1.157-3.175
			c0,0-0.66-1.425-1.473-3.175c-0.813-1.75-0.067-4.322,0.851-6.272c0.536-1.147,0.852-2.42,0.852-3.777
			c0-5.136-4.188-9.314-9.323-9.314C370.858,501.524,366.698,505.703,366.698,510.829z M376.002,515.352
			c-2.506,0-4.523-2.027-4.523-4.522c0-2.496,2.018-4.533,4.523-4.533c2.505,0,4.542,2.027,4.542,4.533
			C380.535,513.324,378.498,515.352,376.002,515.352z"/>
	</g>
</g>
</svg>